<svg width="18" height="18" viewBox="0 0 18 18" xmlns="http://www.w3.org/2000/svg">
    <path d="M15.141 8.303a1.86 1.86 0 1 1-1.375 3.11l-1.853 1.112a1.855 1.855 0 0 1 .077.963l1.594.637A1.858 1.858 0 0 1 17 15.141a1.86 1.86 0 1 1-3.687-.338l-1.595-.637a1.857 1.857 0 0 1-3.415-1.017 1.86 1.86 0 0 1 3.234-1.25l1.853-1.112a1.86 1.86 0 0 1 1.751-2.484zm0 5.71a1.13 1.13 0 1 0 .001 2.258 1.13 1.13 0 0 0 0-2.259zm-4.98-1.992a1.129 1.129 0 1 0 .984.573l-.018-.023a1.12 1.12 0 0 0-.965-.55zM5.603 1c.39 0 .746.22.92.569l.63 1.258c.05.1.153.165.267.165h6.56c.569 0 1.03.46 1.03 1.029v2.655a.365.365 0 1 1-.731 0V4.021a.299.299 0 0 0-.299-.299H7.42c-.39 0-.747-.22-.92-.569l-.63-1.258a.298.298 0 0 0-.267-.165H2.03a.299.299 0 0 0-.299.3v9.958c0 .165.134.299.299.299h4.647a.365.365 0 0 1 0 .73H2.03A1.03 1.03 0 0 1 1 11.987V2.03C1 1.461 1.46 1 2.029 1h3.573zm9.54 8.033a1.129 1.129 0 0 0-.982 1.688l.016.02a1.12 1.12 0 0 0 .965.55 1.129 1.129 0 0 0 0-2.258z" fill="#8B909A" fill-rule="nonzero" stroke="#8B909A" stroke-width=".25"/>
</svg>
