<svg width="24" height="24" viewBox="0 0 24 24" xmlns="http://www.w3.org/2000/svg">
    <path d="M16.27 15.43a.767.767 0 0 1-.722.506H6.483a.77.77 0 0 1-.706-.46l-2.703-7.57c-.181-.421-.004-.874.383-1.042a.78.78 0 0 1 .313-.065h15.638L16.27 15.43zm4.33-8.99 1.37-3.77a.499.499 0 0 0-.938-.341L19.77 5.8h-16a1.766 1.766 0 0 0-1.623 2.471l2.703 7.57c.292.675.93 1.092 1.633 1.092h9.065c.743 0 1.406-.464 1.66-1.162l3.37-9.273a.495.495 0 0 0 .021-.058zM8.202 20.734a.499.499 0 0 0 0-.998 1.132 1.132 0 1 0 0 2.265 1.132 1.132 0 0 0 0-2.265.499.499 0 0 0 0 .998zm6.332 0a.499.499 0 0 0 0-.998A1.132 1.132 0 1 0 14.536 22a1.132 1.132 0 0 0 0-2.265.499.499 0 0 0 0 .998z" fill="#307FC1" fill-rule="nonzero"/>
</svg>
