<svg width="16" height="16" viewBox="0 0 16 16" xmlns="http://www.w3.org/2000/svg">
    <path d="M3.685 5.644a3.684 3.684 0 0 1 3.684 3.684v2.324a.365.365 0 0 1-.365.365H5.68l-.304 3.648a.365.365 0 0 1-.364.335H2.357a.365.365 0 0 1-.364-.335l-.304-3.648H.365A.365.365 0 0 1 0 11.652V9.328a3.685 3.685 0 0 1 3.685-3.684zm0 .73A2.955 2.955 0 0 0 .73 9.328v1.959h1.295c.19 0 .348.145.364.334l.304 3.649h1.983l.305-3.649a.365.365 0 0 1 .363-.334H6.64V9.328a2.954 2.954 0 0 0-2.954-2.954zM14.97.001c.568 0 1.029.461 1.029 1.03v6.638a1.03 1.03 0 0 1-1.029 1.029l-4.946-.001v3.253h.963c.176 0 .323.126.357.292l.008.074a.365.365 0 0 1-.365.365l-1.319-.001H8.332a.365.365 0 0 1-.358-.29l-.007-.074c0-.202.163-.366.365-.366h.962V8.697h-.962a.365.365 0 0 1-.358-.29l-.007-.074c0-.202.163-.365.365-.365h6.639a.299.299 0 0 0 .299-.3V1.03a.299.299 0 0 0-.299-.299H7.004a.365.365 0 1 1 0-.73h7.967zM3.685 6.971c.201 0 .365.164.365.366v1.992a.365.365 0 0 1-.73 0V7.337c0-.202.163-.365.365-.365zM4.788.238a3.377 3.377 0 0 1 .21.106l.07.042A2.689 2.689 0 1 1 2.962.1L2.98.096c.112-.031.226-.055.342-.07l.025-.004a2.661 2.661 0 0 1 1.442.215zm8.786 1.199a.365.365 0 0 1 0 .516L10.586 4.94a.365.365 0 0 1-.516 0l-.738-.738-1.07 1.07a.365.365 0 0 1-.516-.517l1.328-1.328a.365.365 0 0 1 .516 0l.738.738 2.73-2.73a.365.365 0 0 1 .516 0zM1.81 2.122a1.958 1.958 0 1 0 3.822.768 4.222 4.222 0 0 1-3.822-.768zM3.668.73l-.105.005-.08.007-.061.007a1.943 1.943 0 0 0-1.257.716 3.492 3.492 0 0 0 3.394.683A1.943 1.943 0 0 0 4.125.781L4.068.768l.042.009A1.928 1.928 0 0 0 3.966.75l.022.005-.067-.01.045.005a1.93 1.93 0 0 0-.148-.015l.029.003c-.05-.004-.1-.006-.151-.006L3.668.73z" fill="#8B909A" fill-rule="nonzero"/>
</svg>
