<?xml version="1.0" encoding="UTF-8"?>
<svg width="18px" height="16px" viewBox="0 0 18 16" version="1.1" xmlns="http://www.w3.org/2000/svg" xmlns:xlink="http://www.w3.org/1999/xlink">
    <title>3319B528-0DC3-449D-AAE8-AD9B8A353A4A</title>
    <g id="React-Test" stroke="none" stroke-width="1" fill="none" fill-rule="evenodd">
        <g id="Pages---Listing---Grid-View---Interactions-1" transform="translate(-33.000000, -457.000000)" fill="#8B909A" fill-rule="nonzero" stroke="#8B909A" stroke-width="0.25">
            <g id="mt/organisms/menu/dropdown/manage-access/normal" transform="translate(14.000000, 149.000000)">
                <g id="ITEMS" transform="translate(0.000000, 16.000000)">
                    <g id="mt/molecules/buttons/menu/item/normal" transform="translate(0.000000, 280.000000)">
                        <g id="a/icons/micro/16/computers" transform="translate(20.000000, 12.000000)">
                            <g id="icon-computers-16" transform="translate(0.000000, 1.000000)">
                                <path d="M5.29572777,14 C5.05750434,14 4.88306914,13.7757307 4.94185117,13.5450249 L5.501,11.346 L2.81734735,11.3460013 C2.36128095,11.3487782 1.96244411,11.0549893 1.82371199,10.6282772 L1.79247726,10.5087285 L0.0175081899,1.21830827 C-0.0391922892,0.91541737 0.0433348715,0.603791221 0.243162565,0.367882703 C0.44202403,0.134501236 0.733547423,8.76491586e-06 1.04039124,8.76491586e-06 L13.1830566,8.76491586e-06 C13.6803321,-0.00201852889 14.1093194,0.347837024 14.2071788,0.837906033 L15.9829954,10.1293133 C16.0387254,10.431502 15.9559442,10.7433187 15.7570979,10.978071 C15.5587228,11.2120817 15.2651452,11.3469893 14.9592696,11.3460013 L9.361,11.346 L9.361,13.27 L11.6516437,13.2701432 C11.8281109,13.2701432 11.9753423,13.3952341 12.0093929,13.5615258 L12.0168118,13.6350716 C12.0168118,13.836616 11.8533205,14 11.6516437,14 L5.29572777,14 Z M8.63070801,8.69195084 L6.93201633,8.69195084 L5.76552848,13.2701432 L8.63070801,13.2701432 L8.63070801,8.69195084 Z M13.1845528,0.729871303 L1.04039124,0.729871303 C0.947518229,0.729871303 0.859275231,0.770579902 0.799906574,0.840251846 C0.742688817,0.907801516 0.719077843,0.996957581 0.735138129,1.0827645 L2.50927171,10.3688658 C2.53813633,10.5133978 2.66533271,10.6170427 2.81510798,10.6161317 L5.687,10.616 L6.29430085,8.23697577 C6.33550149,8.07527289 6.48120539,7.96209408 6.64817745,7.96209408 L8.99587607,7.96209408 C9.19755281,7.96209408 9.36104412,8.12547808 9.36104412,8.32702246 L9.361,10.616 L14.960463,10.6161336 C15.029399,10.6163587 15.0964884,10.593505 15.1505076,10.5528292 L15.1997542,10.5064074 C15.2569067,10.4389349 15.2808367,10.3487963 15.2651913,10.2639195 L13.4903891,0.977793483 C13.4615108,0.833193001 13.3340724,0.729262146 13.1845528,0.729871303 Z M12.0756562,7.92274414 L12.2111004,8.59023132 C12.2511813,8.78775541 12.1234432,8.98035099 11.9257894,9.02040557 C11.7281356,9.06046016 11.5354135,8.9328059 11.4953326,8.73528181 L11.3598884,8.06779463 C11.3198076,7.87027054 11.4475456,7.67767497 11.6451995,7.63762038 C11.8428533,7.59756579 12.0355753,7.72522005 12.0756562,7.92274414 Z M13.4274802,7.92260539 L13.5629243,8.58876556 C13.6030819,8.7862741 13.4754186,8.97891918 13.2777803,9.0190504 C13.0801421,9.05918161 12.8873705,8.93160209 12.8472129,8.73409355 L12.7117688,8.06793338 C12.6716112,7.87042484 12.7992745,7.67777976 12.9969128,7.63764854 C13.194551,7.59751733 13.3873226,7.72509685 13.4274802,7.92260539 Z" id="Combined-Shape"></path>
                            </g>
                        </g>
                    </g>
                </g>
            </g>
        </g>
    </g>
</svg>