<svg width="18" height="18" viewBox="0 0 18 18" xmlns="http://www.w3.org/2000/svg">
    <g fill="#8B909A" fill-rule="nonzero" stroke="#8B909A" stroke-width=".25">
        <path d="M7.333 13.667h-6A.333.333 0 0 1 1 13.333v-5A3.337 3.337 0 0 1 4.333 5a3.337 3.337 0 0 1 3.334 3.333v5c0 .184-.15.334-.334.334zM1.667 13H7V8.333a2.67 2.67 0 0 0-2.667-2.666 2.67 2.67 0 0 0-2.666 2.666V13z"/>
        <path d="M16.667 13.667H7.333a.333.333 0 0 1 0-.667h9V8.333a2.67 2.67 0 0 0-2.666-2.666H4.333a.333.333 0 0 1 0-.667h9.334A3.337 3.337 0 0 1 17 8.333v5c0 .184-.15.334-.333.334z"/>
        <path d="M10 17a.333.333 0 0 1-.333-.333v-3.334a.333.333 0 0 1 .666 0v3.334c0 .184-.149.333-.333.333zM3.333 5.667A.333.333 0 0 1 3 5.333v-4a.333.333 0 0 1 .667 0v4c0 .184-.15.334-.334.334z"/>
        <path d="M6.667 3.667H3.333A.333.333 0 0 1 3 3.333v-2C3 1.15 3.15 1 3.333 1h3.334C6.85 1 7 1.15 7 1.333v2c0 .184-.15.334-.333.334zm-3-.667h2.666V1.667H3.667V3z"/>
    </g>
</svg>
