<svg width="18" height="16" viewBox="0 0 18 16" xmlns="http://www.w3.org/2000/svg">
    <g stroke="#8B909A" stroke-width=".85" fill="none" fill-rule="evenodd" stroke-linecap="round" stroke-linejoin="round">
        <path d="M16.667 4.667a.667.667 0 0 1-.667.666H2a.667.667 0 0 1-.667-.666v-2C1.333 2.298 1.632 2 2 2h14c.368 0 .667.298.667.667v2zM16 6.667v6.666a.667.667 0 0 1-.667.667H2.667A.667.667 0 0 1 2 13.333V6.667"/>
        <path d="M11.333 8.333a1 1 0 0 1-1 1H7.667a1 1 0 1 1 0-2h2.666a1 1 0 0 1 1 1h0z"/>
    </g>
</svg>
