<svg width="18" height="18" viewBox="0 0 18 18" xmlns="http://www.w3.org/2000/svg">
    <g stroke="#8B909A" stroke-width=".85" fill="none" fill-rule="evenodd" stroke-linecap="round" stroke-linejoin="round">
        <path d="M2 12h5.333c.368 0 .667.298.667.667V16a.666.666 0 0 1-.667.667H2A.666.666 0 0 1 1.333 16v-3.333c0-.369.299-.667.667-.667zM16 16.667h-5.333A.666.666 0 0 1 10 16V8.667c0-.368.298-.667.667-.667H16c.369 0 .667.299.667.667V16a.666.666 0 0 1-.667.667zM16 6h-5.333A.666.666 0 0 1 10 5.333V2c0-.368.298-.667.667-.667H16c.369 0 .667.299.667.667v3.333A.666.666 0 0 1 16 6zM2 1.333h5.333c.368 0 .667.299.667.667v7.333a.666.666 0 0 1-.667.667H2a.666.666 0 0 1-.667-.667V2c0-.368.299-.667.667-.667z"/>
    </g>
</svg>
