<svg width="24" height="24" viewBox="0 0 24 24" xmlns="http://www.w3.org/2000/svg">
    <path d="M19.144 0A4.856 4.856 0 0 1 24 4.856v14.288A4.856 4.856 0 0 1 19.144 24H4.856A4.856 4.856 0 0 1 0 19.144V4.856A4.856 4.856 0 0 1 4.856 0zM4.503 4.348c-.853 0-1.347.538-1.347 1.436v12.432c0 .898.494 1.436 1.347 1.436.83 0 1.324-.538 1.324-1.436V5.784c0-.898-.494-1.436-1.324-1.436zm8.94.134H8.955c-.898 0-1.436.539-1.436 1.436v12.164c0 .897.538 1.436 1.436 1.436h4.488c5.14 0 8.146-2.783 8.146-7.518 0-4.735-3.007-7.518-8.146-7.518zM13.64 7c3.264 0 5.218 1.912 5.218 5.143s-1.954 5.143-5.218 5.143h-3.353V7z" fill="#307FC1" fill-rule="evenodd"/>
</svg>
